<svg width="79" height="78" viewBox="0 0 79 78" fill="none" xmlns="http://www.w3.org/2000/svg">
<path d="M54.1792 22.8174C53.8407 26.1622 53.597 28.9518 53.2584 31.7278C53.0688 33.2445 52.4459 34.5581 50.7397 34.9237C49.3178 35.2216 47.8417 34.4362 46.9886 32.6893C46.1626 31.0101 45.5667 29.2091 44.9438 27.4351C43.1428 22.3435 40.3667 17.8206 36.9272 13.6904C35.8574 12.4039 34.8011 11.1174 33.5688 9.62785C33.298 10.5351 33.0813 11.2664 32.8647 11.9976C30.5626 19.9466 29.7772 28.0445 30.1292 36.2914C30.2376 38.9591 29.9261 41.681 29.547 44.3351C29.3032 46.0414 28.6667 47.7747 26.6084 48.1539C25.1324 48.4247 23.6699 47.206 22.7761 44.9851C22.1803 43.4956 21.7876 41.9112 21.2459 40.3945C20.948 39.5414 20.5147 38.7424 20.122 37.8487C15.1522 43.8883 18.9438 63.8081 25.5657 66.7195C25.5928 61.3841 28.0438 56.9695 30.9417 52.7987C35.0449 46.8945 37.2792 40.3674 38.024 33.2716C38.0782 32.7435 38.1865 32.2018 38.2813 31.6872C38.7417 29.2768 39.7303 28.8841 41.5313 30.6716C42.6959 31.8226 43.7251 33.2445 44.4022 34.7206C47.7605 41.9518 49.1553 49.4539 46.8803 57.3351C46.623 58.2018 46.0407 59.4206 46.474 60.0435C47.2324 60.9914 48.424 59.3664 48.6813 58.7028C49.3584 56.956 49.7782 55.1278 50.3199 53.3268C50.6584 52.2029 50.8615 50.9706 51.4709 49.9956C51.9449 49.2372 52.974 48.3029 53.6782 48.3706C54.4095 48.4383 55.4251 49.481 55.6688 50.2935C57.4563 56.3466 56.6167 61.8851 51.0376 66.5841C48.1667 69.0081 44.6324 69.7935 41.0167 70.2674C36.9407 70.7956 32.9188 70.9581 28.8292 70.0237C26.8792 69.5768 24.848 69.2789 23.6699 68.8456C22.4917 68.4122 21.4897 67.532 21.0157 66.8008C14.9897 57.4976 14.0011 47.6935 18.2397 37.4153C19.1199 35.2893 20.8126 34.8424 22.3022 36.6029C23.399 37.9029 24.022 39.6497 24.7126 41.2747C25.1865 42.4122 25.4438 43.6445 25.7688 44.8362C26.1751 46.3258 26.7709 46.556 27.1772 46.2987C27.6782 46.1497 27.9761 44.3487 27.922 42.5476C27.8272 39.582 27.8813 36.6028 27.5699 33.6643C26.6626 25.0518 28.7615 16.981 31.822 9.07264C32.5803 7.09556 33.447 6.85181 35.072 8.23306C41.7345 13.8799 46.5417 20.7591 48.722 29.3174C49.0605 30.6174 49.1688 32.0799 50.8209 33.1091C50.9834 31.8497 51.1188 30.807 51.2678 29.7778C51.647 27.232 51.8907 24.6591 52.4595 22.1674C52.8115 20.6643 53.8542 20.3529 54.9511 21.4362C56.3865 22.8581 57.7949 24.4289 58.7292 26.2029C62.2095 32.8383 63.4011 40.0424 63.374 47.4633C63.347 53.2997 62.2636 58.9601 59.5824 64.1737C58.6751 65.9476 57.1449 67.4101 55.8449 68.9674C55.2626 69.6716 53.9355 69.4414 54.5449 67.8706C54.599 67.7351 54.6667 67.5726 54.7615 67.4372C59.799 60.6799 60.3001 52.7716 60.3678 44.8091C60.422 38.4581 59.5011 32.2289 56.5355 26.4872C55.9126 25.3091 55.1136 24.2529 54.1792 22.8174ZM53.448 50.5914C52.649 53.2456 52.0261 55.4393 51.3084 57.6195C50.7397 59.3393 49.873 60.8966 48.1667 61.7497C46.1897 62.7518 44.2667 61.6414 44.1584 59.4206C44.1178 58.5133 44.1584 57.5789 44.3345 56.6987C45.7157 49.6299 45.0657 42.7779 42.3032 36.1289C41.8292 34.9914 41.1386 33.9487 40.448 32.7029C40.2042 33.1091 40.0282 34.5851 40.0011 35.2216C39.8251 40.0424 39.2834 44.8091 36.7511 49.0612C35.2345 51.5935 33.5282 54.0174 31.8761 56.482C30.048 59.231 28.423 62.0747 27.8272 65.3789C27.4209 67.6404 27.597 67.7487 29.7636 68.3039C34.3542 69.4685 38.8501 68.7237 43.3324 67.8299C48.4376 66.8143 51.6199 63.456 53.5157 58.8247C54.5584 56.2924 54.2605 53.6654 53.448 50.5914Z" fill="#CD4631"/>
</svg>
