<svg width="79" height="78" viewBox="0 0 79 78" fill="none" xmlns="http://www.w3.org/2000/svg">
<path d="M70.1582 24.741C70.578 25.2014 70.6322 25.8785 70.3072 26.4201C70.0092 26.9212 69.7519 27.3545 69.454 27.7607C66.3665 32.0399 64.6738 34.2743 61.6269 38.5805C60.8551 39.6639 58.9863 42.9816 58.2686 44.1191C58.2551 44.1326 58.2551 44.1462 58.2415 44.1597C57.5915 45.1347 55.9936 45.067 55.479 43.9972C55.479 43.9972 55.479 43.9837 55.4655 43.9837C54.7072 42.318 54.0978 40.5982 53.3936 38.9055C51.4572 34.2337 48.7624 30.1847 44.2801 27.5305C42.6551 26.5691 42.628 25.8649 43.8874 24.4701C44.3613 23.9555 44.8353 23.4274 45.3499 22.967C50.3197 18.5389 53.7457 13.068 56.3051 6.97429C56.4676 6.59512 56.7926 6.2972 57.1447 5.99929C57.6051 5.62012 58.2686 5.67429 58.6749 6.10762C59.0134 6.45971 59.3249 6.83887 59.5145 7.25866C59.9342 8.23366 60.0426 9.33054 60.2999 10.3732C61.6811 16.0472 64.7551 20.5701 69.4269 24.0503C69.6842 24.2399 69.9144 24.4837 70.1582 24.741ZM57.7134 11.1451C56.1019 13.8264 54.7478 16.5889 52.9061 18.9993C51.0238 21.4503 48.6676 23.5357 46.5144 25.7972C51.9853 29.0743 55.154 34.2607 57.0634 40.6253C59.8665 34.8295 63.7394 30.2253 67.9915 25.9191C61.2749 20.8003 59.6769 18.4847 57.7134 11.1451Z" fill="black"/>
<path d="M19.0926 71.4733C17.8603 67.9795 16.7905 64.4181 15.4364 60.9785C14.1093 57.6472 12.1322 54.6816 9.28846 52.3931C8.24575 51.5535 8.27283 50.7951 9.12596 49.8472C13.9197 44.6337 17.603 38.7295 20.2437 32.1618C20.528 31.4576 21.2864 30.3337 21.8145 30.3337C23.2499 29.9951 23.7645 32.7983 23.8187 33.0556C25.0239 39.6639 29.1135 44.4712 33.7041 48.967C35.1937 50.4295 35.3155 50.8764 33.853 52.2847C28.3416 57.566 24.6853 64.066 21.5437 70.9045C20.5551 73.2879 19.2416 71.8931 19.0926 71.4733ZM10.9405 50.7816C13.8655 52.6368 15.802 55.1149 17.2103 57.9181C18.578 60.667 19.5801 63.5785 20.7176 66.3681C23.3447 60.491 26.8926 55.0608 32.2822 50.9306C27.0687 46.8274 22.952 42.142 21.6926 35.4253C19.4312 41.4649 15.8426 46.4889 10.9405 50.7816Z" fill="#81ADC8"/>
<path d="M56.1021 56.9025C53.1094 60.9244 51.2812 65.515 49.6021 70.1869C49.4937 70.4848 49.1417 72.1775 47.8552 72.164C47.4896 72.164 46.8802 71.5817 46.65 71.1213C45.6344 69.0494 44.9979 66.7338 43.7114 64.865C42.1948 62.6442 40.1094 60.8161 38.3489 58.7713C38.0916 58.4734 37.9969 57.7963 38.1594 57.4307C38.4708 56.7536 39.026 56.2119 39.4594 55.589C41.6666 52.339 43.8333 49.0619 46.1083 45.8661C46.5823 45.2025 47.5167 44.4036 48.0719 44.4036C49.4531 44.39 49.7239 45.4734 49.9677 46.2452C51.0781 49.7932 52.9875 52.7588 55.7635 55.2098C56.7521 56.1307 56.2239 56.74 56.1021 56.9025ZM40.8948 57.8369C44.1177 60.1254 46.3114 63.4296 47.6385 67.1265C49.6021 63.5244 51.6062 59.8546 53.6646 56.0629C50.9021 54.1536 48.9792 50.5921 48.0989 47.965C45.6885 51.2692 43.3052 54.5327 40.8948 57.8369Z" fill="#CD4631"/>
</svg>
